<?xml version="1.0" standalone="no"?>
<!DOCTYPE svg PUBLIC "-//W3C//DTD SVG 20010904//EN"
 "http://www.w3.org/TR/2001/REC-SVG-20010904/DTD/svg10.dtd">
<svg version="1.0" xmlns="http://www.w3.org/2000/svg"
 width="512.000000pt" height="512.000000pt" viewBox="0 0 512.000000 512.000000"
 preserveAspectRatio="xMidYMid meet">
<metadata>
Created by potrace 1.14, written by Peter Selinger 2001-2017
</metadata>
<g transform="translate(0.000000,512.000000) scale(0.100000,-0.100000)"
fill="#000000" stroke="none">
<path d="M1125 5095 c-51 -51 -37 -75 156 -262 138 -134 159 -144 204 -98 45
44 35 70 -68 175 -221 224 -241 237 -292 185z"/>
<path d="M3921 5111 c-38 -24 -292 -287 -297 -308 -13 -52 37 -103 88 -90 21
6 175 151 276 260 49 54 54 86 17 122 -25 25 -59 32 -84 16z"/>
<path d="M2508 5045 c-2 -1 -33 -5 -69 -9 -192 -18 -413 -126 -569 -277 -130
-127 -231 -316 -271 -509 -7 -33 -13 -182 -14 -370 l-3 -315 -465 -1 c-460 -1
-465 -1 -511 -23 -55 -27 -95 -76 -110 -135 -7 -28 -11 -211 -10 -528 l1 -486
-66 0 c-36 0 -87 0 -113 -1 l-48 -1 0 -1005 0 -1005 -42 -1 c-24 0 -73 0 -110
0 -63 0 -68 -2 -69 -22 0 -33 -1 -298 0 -330 l1 -27 2522 2 2522 3 0 185 0
185 -709 2 c-391 1 -736 2 -767 2 l-58 1 0 310 0 310 461 -1 c452 0 461 0 505
21 48 24 90 71 108 123 8 24 11 338 11 1148 -1 1112 -1 1114 -22 1154 -24 46
-54 75 -103 101 -32 17 -70 18 -503 19 l-468 0 0 280 c1 366 -19 496 -102 660
-136 270 -409 473 -704 525 -58 10 -218 21 -225 15z"/>
<path d="M831 4369 c-31 -29 -26 -85 10 -111 25 -19 90 -22 375 -19 68 1 101
20 108 62 4 29 -17 74 -39 83 -9 3 -110 6 -224 6 -196 0 -208 -1 -230 -21z"/>
<path d="M3832 4370 c-12 -12 -23 -25 -23 -30 -1 -6 -2 -16 -3 -22 -4 -22 23
-66 44 -73 28 -9 393 -9 421 0 52 17 67 87 27 125 -20 19 -34 20 -233 20 -199
0 -213 -1 -233 -20z"/>
</g>
</svg>
